<?xml version="1.0" standalone="no"?><!DOCTYPE svg PUBLIC "-//W3C//DTD SVG 1.1//EN" "http://www.w3.org/Graphics/SVG/1.1/DTD/svg11.dtd"><svg class="icon" width="32px" height="32.00px" viewBox="0 0 1024 1024" version="1.1" xmlns="http://www.w3.org/2000/svg"><path d="M991.727909 404.402639c-26.049138-26.979465-253.979099-28.840117-279.097911-46.516319s57.680235-93.032637 51.16795-215.835717A135.82765 135.82765 0 0 0 665.183353 0.640995a50.237624 50.237624 0 0 0-54.889255 31.631096c-21.397506 52.098277-46.516318 146.991566-73.495783 206.532454a913.580494 913.580494 0 0 1-196.298864 198.159517 23.258159 23.258159 0 0 0-8.372938 18.606527V1024h480.978733A137.688303 137.688303 0 0 0 930.326368 903.987898l93.032637-448.417309a121.872754 121.872754 0 0 0-31.631096-51.16795zM216.766044 459.291894H0v562.847453l216.766044 1.860653V459.291894z" fill="#a8a8a8" /></svg>